{
    "asset" : {
        "generator" : "Khronos glTF Blender I/O v1.5.17",
        "version" : "2.0"
    },
    "scene" : 0,
    "scenes" : [
        {
            "name" : "Scene",
            "nodes" : [
                0,
                1,
                2
            ]
        }
    ],
    "nodes" : [
        {
            "mesh" : 0,
            "name" : "leg",
            "rotation" : [
                0,
                0,
                0.08312273770570755,
                0.9965394139289856
            ],
            "scale" : [
                0.9998819828033447,
                0.9958059787750244,
                1.0077416896820068
            ],
            "translation" : [
                1.2742300033569336,
                0.09420789778232574,
                1.0336066484451294
            ]
        },
        {
            "mesh" : 1,
            "name" : "Plane",
            "scale" : [
                1.0159623622894287,
                1,
                1
            ],
            "translation" : [
                -0.0036026425659656525,
                -0.021592695266008377,
                0.26799190044403076
            ]
        },
        {
            "mesh" : 2,
            "name" : "Plane.001",
            "rotation" : [
                0.7071068286895752,
                0,
                0,
                0.7071068286895752
            ],
            "scale" : [
                0.7600101232528687,
                0.7600101232528687,
                0.7600101232528687
            ],
            "translation" : [
                -0.0053512342274188995,
                3.3383986949920654,
                -0.8739428520202637
            ]
        }
    ],
    "meshes" : [
        {
            "name" : "Cube",
            "primitives" : [
                {
                    "attributes" : {
                        "POSITION" : 0
                    },
                    "indices" : 1
                }
            ]
        },
        {
            "name" : "Plane.003",
            "primitives" : [
                {
                    "attributes" : {
                        "POSITION" : 2
                    },
                    "indices" : 3
                }
            ]
        },
        {
            "name" : "Plane.004",
            "primitives" : [
                {
                    "attributes" : {
                        "POSITION" : 4
                    },
                    "indices" : 3
                }
            ]
        }
    ],
    "accessors" : [
        {
            "bufferView" : 0,
            "componentType" : 5126,
            "count" : 21696,
            "max" : [
                0.058837924152612686,
                3.9343481063842773,
                0.09605034440755844
            ],
            "min" : [
                -2.6001014709472656,
                -0.09317196905612946,
                -2.207395315170288
            ],
            "type" : "VEC3"
        },
        {
            "bufferView" : 1,
            "componentType" : 5123,
            "count" : 129024,
            "type" : "SCALAR"
        },
        {
            "bufferView" : 2,
            "componentType" : 5126,
            "count" : 2738,
            "max" : [
                1.278140664100647,
                2.49385142326355,
                1.0017503499984741
            ],
            "min" : [
                -1.278140664100647,
                2.1766629219055176,
                -0.9855539798736572
            ],
            "type" : "VEC3"
        },
        {
            "bufferView" : 3,
            "componentType" : 5123,
            "count" : 16416,
            "type" : "SCALAR"
        },
        {
            "bufferView" : 4,
            "componentType" : 5126,
            "count" : 2738,
            "max" : [
                1.611470341682434,
                0.40549612045288086,
                1.0042870044708252
            ],
            "min" : [
                -1.611470341682434,
                -0.5036721229553223,
                -0.985429048538208
            ],
            "type" : "VEC3"
        }
    ],
    "bufferViews" : [
        {
            "buffer" : 0,
            "byteLength" : 260352,
            "byteOffset" : 0
        },
        {
            "buffer" : 0,
            "byteLength" : 258048,
            "byteOffset" : 260352
        },
        {
            "buffer" : 0,
            "byteLength" : 32856,
            "byteOffset" : 518400
        },
        {
            "buffer" : 0,
            "byteLength" : 32832,
            "byteOffset" : 551256
        },
        {
            "buffer" : 0,
            "byteLength" : 32856,
            "byteOffset" : 584088
        }
    ],
    "buffers" : [
        {
            "byteLength" : 616944,
            "uri" : "data:application/octet-stream;base64,"
        }
    ]
}
